<svg width="121" height="121" viewBox="0 0 121 121" fill="none" xmlns="http://www.w3.org/2000/svg">
<g clip-path="url(#clip0_506_11)">
<path d="M76.7015 90.5457C78.3949 89.7224 77.8064 87.2367 75.9848 86.6633C72.3499 85.5101 68.9952 83.6122 66.1345 81.0906C54.9028 71.2228 53.6371 54.3039 63.3068 43.2978C66.5676 39.578 70.8215 36.8654 75.5696 35.478C77.3881 34.9454 77.9349 32.4774 76.2281 31.6055C63.0567 24.8982 46.6903 27.5053 36.6716 38.9087C24.7713 52.4537 26.3299 73.2773 40.1541 85.4228C50.6208 94.6186 65.1139 96.2005 76.7015 90.5457Z" fill="black"/>
<path d="M82.0595 41.1531C81.8051 40.2009 80.4258 40.29 80.2949 41.2661L80.0623 43.007C79.9681 43.7129 79.667 44.3752 79.1969 44.9103C78.7268 45.4454 78.1088 45.8293 77.4208 46.0135L75.7243 46.4684C74.7733 46.7238 74.8636 48.1041 75.8406 48.2338L77.5804 48.4654C78.2863 48.5596 78.9486 48.8607 79.4837 49.3308C80.0188 49.8009 80.4027 50.419 80.587 51.1069L81.0418 52.8034C81.2962 53.7556 82.6755 53.6664 82.8052 52.6894L83.0378 50.9485C83.132 50.2425 83.4331 49.5802 83.9032 49.0452C84.3733 48.5101 84.9913 48.1262 85.6793 47.9419L87.3758 47.4871C88.328 47.2327 88.2388 45.8534 87.2606 45.7227L85.5209 45.4911C84.8149 45.3969 84.1526 45.0958 83.6176 44.6257C83.0825 44.1556 82.6986 43.5375 82.5143 42.8496L82.0595 41.1531Z" fill="#701CDA"/>
<path d="M77.9108 68.8107C77.6564 67.8585 76.2771 67.9476 76.1463 68.9237L75.9136 70.6645C75.8194 71.3705 75.5183 72.0328 75.0482 72.5679C74.5781 73.103 73.9601 73.4869 73.2721 73.6711L71.5757 74.126C70.6246 74.3814 70.7149 75.7617 71.692 75.8914L73.4317 76.123C74.1377 76.2172 74.8 76.5183 75.335 76.9884C75.8701 77.4585 76.254 78.0765 76.4383 78.7645L76.8931 80.461C77.1475 81.4132 78.5268 81.324 78.6565 80.347L78.8891 78.6061C78.9833 77.9001 79.2844 77.2378 79.7545 76.7028C80.2246 76.1677 80.8427 75.7838 81.5307 75.5995L83.2271 75.1447C84.1793 74.8903 84.0902 73.511 83.1119 73.3803L81.3722 73.1487C80.6662 73.0545 80.0039 72.7534 79.4689 72.2833C78.9338 71.8132 78.5499 71.1951 78.3656 70.5071L77.9108 68.8107Z" fill="#701CDA"/>
<path d="M68.227 54.9825C67.972 54.0301 66.5926 54.1184 66.4624 55.0942L66.2309 56.8348C66.1371 57.5407 65.8364 58.2028 65.3666 58.7375C64.8968 59.2722 64.279 59.6557 63.5911 59.8395L61.8948 60.2931C60.9438 60.5479 61.035 61.9282 62.0123 62.0585L63.7523 62.2913C64.4584 62.3859 65.121 62.6875 65.6564 63.1579C66.1919 63.6283 66.5762 64.2466 66.761 64.9346L67.217 66.6312C67.472 67.5836 68.8514 67.4953 68.9805 66.5184L69.212 64.7778C69.3057 64.072 69.6064 63.4099 70.0762 62.8752C70.546 62.3405 71.1638 61.957 71.8517 61.7732L73.5481 61.3195C74.5002 61.0658 74.4101 59.6865 73.4317 59.5552L71.6917 59.3224C70.9856 59.2278 70.323 58.9262 69.7876 58.4558C69.2521 57.9854 68.8678 57.3672 68.683 56.6791L68.227 54.9825Z" fill="#B629F8"/>
<path d="M88.9702 54.9825C88.7151 54.0301 87.3358 54.1184 87.2055 55.0942L86.974 56.8348C86.8803 57.5407 86.5796 58.2028 86.1098 58.7375C85.64 59.2722 85.0222 59.6557 84.3342 59.8395L82.6379 60.2931C81.6869 60.5479 81.7782 61.9282 82.7554 62.0585L84.4955 62.2913C85.2016 62.3859 85.8641 62.6875 86.3996 63.1579C86.935 63.6283 87.3194 64.2466 87.5041 64.9346L87.9601 66.6312C88.2152 67.5836 89.5945 67.4953 89.7236 66.5184L89.9551 64.7778C90.0488 64.072 90.3496 63.4099 90.8194 62.8752C91.2891 62.3405 91.907 61.957 92.5949 61.7732L94.2912 61.3195C95.2434 61.0658 95.1533 59.6865 94.1749 59.5552L92.4349 59.3224C91.7287 59.2278 91.0662 58.9262 90.5307 58.4558C89.9953 57.9854 89.611 57.3672 89.4262 56.6791L88.9702 54.9825Z" fill="#B629F8"/>
</g>
<defs>
<clipPath id="clip0_506_11">
<rect width="85.7386" height="85.7386" fill="white" transform="translate(56.5896) rotate(41.3017)"/>
</clipPath>
</defs>
</svg>
